# xmcd
#
# Track frame offsets: 
#        150
#        23847
#        47467
#        68360
#        92012
#        111555
#        135282
#        157225
#        177800
#        198297
#        214550
#
# Disc length: 3265 seconds
#
# Revision: 2
# Processed by: cddbd v1.5.2PL0 Copyright (c) Steve Scherf et al.
# Submitted via: ExactAudioCopyFreeDBPlugin 1.0
#
DISCID=8a0cbf0b
DTITLE=Delegation - Eau De Vie
DYEAR=1979
DGENRE=Funky Disco
TTITLE0=Heartache No.9
TTITLE1=Sho' 'Nuff Sold On You
TTITLE2=One More Step To Take
TTITLE3=Blue Girl
TTITLE4=Darlin' (I Think About You)
TTITLE5=You And I
TTITLE6=Stand Up (Reach For The Sky)
TTITLE7=Welcome To My World
TTITLE8=Put A Little Love On Me
TTITLE9=You And I (Single Version - Remix 1987)
TTITLE10=Put A Little Love On Me (Special Remix)
EXTD=YEAR: 1979 ID3G: 42
EXTT0=
EXTT1=
EXTT2=
EXTT3=
EXTT4=
EXTT5=
EXTT6=
EXTT7=
EXTT8=
EXTT9=
EXTT10=
PLAYORDER=
